<svg xmlns="http://www.w3.org/2000/svg" width="45.257" height="43.632" viewBox="0 0 45.257 43.632">
  <g id="Livello_11" data-name="Livello 11" transform="translate(-1.75 -3.529)">
    <path id="Path_85" data-name="Path 85" d="M44.6,29.052h0a4.541,4.541,0,0,0-1.687,5.171h0a4.541,4.541,0,0,1-4.36,6h0a4.541,4.541,0,0,0-4.4,3.2h0A4.541,4.541,0,0,1,27.1,45.733h0a4.541,4.541,0,0,0-5.435,0h0A4.541,4.541,0,0,1,14.6,43.416h0a4.541,4.541,0,0,0-4.393-3.193h0a4.541,4.541,0,0,1-4.369-5.991h0a4.541,4.541,0,0,0-1.673-5.18h0a4.541,4.541,0,0,1,0-7.414h0a4.541,4.541,0,0,0,1.673-5.171h0a4.541,4.541,0,0,1,4.36-6h0a4.541,4.541,0,0,0,4.4-3.2h0a4.541,4.541,0,0,1,7.052-2.317h0a4.541,4.541,0,0,0,5.435,0h0a4.541,4.541,0,0,1,7.057,2.317h0a4.541,4.541,0,0,0,4.393,3.193h0a4.541,4.541,0,0,1,4.369,5.991h0a4.541,4.541,0,0,0,1.673,5.18h0a4.541,4.541,0,0,1,.014,7.414Z" fill="#978ac5" stroke="#707070" stroke-width="1"/>
  </g>
</svg>
